<svg width="197" height="28" viewBox="0 0 197 28" fill="none" xmlns="http://www.w3.org/2000/svg">
<path d="M10.4941 11.2148L16.6289 1.40625H20.6016L12.5156 14.0977L20.7949 27H16.7871L10.4941 17.0156L4.16602 27H0.175781L8.47266 14.0977L0.369141 1.40625H4.32422L10.4941 11.2148ZM41.1855 15.5918C38.291 14.7598 36.1816 13.7402 34.8574 12.5332C33.5449 11.3145 32.8887 9.81445 32.8887 8.0332C32.8887 6.01758 33.6914 4.35352 35.2969 3.04102C36.9141 1.7168 39.0117 1.05469 41.5898 1.05469C43.3477 1.05469 44.9121 1.39453 46.2832 2.07422C47.666 2.75391 48.7324 3.69141 49.4824 4.88672C50.2441 6.08203 50.625 7.38867 50.625 8.80664H47.2324C47.2324 7.25977 46.7402 6.04688 45.7559 5.16797C44.7715 4.27734 43.3828 3.83203 41.5898 3.83203C39.9258 3.83203 38.625 4.20117 37.6875 4.93945C36.7617 5.66602 36.2988 6.67969 36.2988 7.98047C36.2988 9.02344 36.7383 9.9082 37.6172 10.6348C38.5078 11.3496 40.0137 12.0059 42.1348 12.6035C44.2676 13.2012 45.9316 13.8633 47.127 14.5898C48.334 15.3047 49.2246 16.1426 49.7988 17.1035C50.3848 18.0645 50.6777 19.1953 50.6777 20.4961C50.6777 22.5703 49.8691 24.2344 48.252 25.4883C46.6348 26.7305 44.4727 27.3516 41.7656 27.3516C40.0078 27.3516 38.3672 27.0176 36.8438 26.3496C35.3203 25.6699 34.1426 24.7441 33.3105 23.5723C32.4902 22.4004 32.0801 21.0703 32.0801 19.582H35.4727C35.4727 21.1289 36.041 22.3535 37.1777 23.2559C38.3262 24.1465 39.8555 24.5918 41.7656 24.5918C43.5469 24.5918 44.9121 24.2285 45.8613 23.502C46.8105 22.7754 47.2852 21.7852 47.2852 20.5312C47.2852 19.2773 46.8457 18.3105 45.9668 17.6309C45.0879 16.9395 43.4941 16.2598 41.1855 15.5918ZM53.6484 17.3145C53.6484 15.4512 54.0117 13.7754 54.7383 12.2871C55.4766 10.7988 56.4961 9.65039 57.7969 8.8418C59.1094 8.0332 60.6035 7.62891 62.2793 7.62891C64.8691 7.62891 66.9609 8.52539 68.5547 10.3184C70.1602 12.1113 70.9629 14.4961 70.9629 17.4727V17.7012C70.9629 19.5527 70.6055 21.2168 69.8906 22.6934C69.1875 24.1582 68.1738 25.3008 66.8496 26.1211C65.5371 26.9414 64.0254 27.3516 62.3145 27.3516C59.7363 27.3516 57.6445 26.4551 56.0391 24.6621C54.4453 22.8691 53.6484 20.4961 53.6484 17.543V17.3145ZM56.918 17.7012C56.918 19.8105 57.4043 21.5039 58.377 22.7812C59.3613 24.0586 60.6738 24.6973 62.3145 24.6973C63.9668 24.6973 65.2793 24.0527 66.252 22.7637C67.2246 21.4629 67.7109 19.6465 67.7109 17.3145C67.7109 15.2285 67.2129 13.541 66.2168 12.252C65.2324 10.9512 63.9199 10.3008 62.2793 10.3008C60.6738 10.3008 59.3789 10.9395 58.3945 12.2168C57.4102 13.4941 56.918 15.3223 56.918 17.7012ZM78.5742 27H75.3223V0H78.5742V27ZM95.5371 27C95.3496 26.625 95.1973 25.957 95.0801 24.9961C93.5684 26.5664 91.7637 27.3516 89.666 27.3516C87.791 27.3516 86.25 26.8242 85.043 25.7695C83.8477 24.7031 83.25 23.3555 83.25 21.7266C83.25 19.7461 84 18.2109 85.5 17.1211C87.0117 16.0195 89.1328 15.4688 91.8633 15.4688H95.0273V13.9746C95.0273 12.8379 94.6875 11.9355 94.0078 11.2676C93.3281 10.5879 92.3262 10.248 91.002 10.248C89.8418 10.248 88.8691 10.541 88.084 11.127C87.2988 11.7129 86.9062 12.4219 86.9062 13.2539H83.6367C83.6367 12.3047 83.9707 11.3906 84.6387 10.5117C85.3184 9.62109 86.2324 8.91797 87.3809 8.40234C88.541 7.88672 89.8125 7.62891 91.1953 7.62891C93.3867 7.62891 95.1035 8.17969 96.3457 9.28125C97.5879 10.3711 98.2324 11.877 98.2793 13.7988V22.5527C98.2793 24.2988 98.502 25.6875 98.9473 26.7188V27H95.5371ZM90.1406 24.5215C91.1602 24.5215 92.127 24.2578 93.041 23.7305C93.9551 23.2031 94.6172 22.5176 95.0273 21.6738V17.7715H92.4785C88.4941 17.7715 86.502 18.9375 86.502 21.2695C86.502 22.2891 86.8418 23.0859 87.5215 23.6602C88.2012 24.2344 89.0742 24.5215 90.1406 24.5215ZM112.57 10.8984C112.078 10.8164 111.545 10.7754 110.971 10.7754C108.838 10.7754 107.391 11.6836 106.629 13.5V27H103.377V7.98047H106.541L106.594 10.1777C107.66 8.47852 109.172 7.62891 111.129 7.62891C111.762 7.62891 112.242 7.71094 112.57 7.875V10.8984ZM141.996 4.18359H133.77V27H130.412V4.18359H122.203V1.40625H141.996V4.18359ZM151.418 27.3516C148.84 27.3516 146.742 26.5078 145.125 24.8203C143.508 23.1211 142.699 20.8535 142.699 18.0176V17.4199C142.699 15.5332 143.057 13.8516 143.771 12.375C144.498 10.8867 145.506 9.72656 146.795 8.89453C148.096 8.05078 149.502 7.62891 151.014 7.62891C153.486 7.62891 155.408 8.44336 156.779 10.0723C158.15 11.7012 158.836 14.0332 158.836 17.0684V18.4219H145.951C145.998 20.2969 146.543 21.8145 147.586 22.9746C148.641 24.123 149.977 24.6973 151.594 24.6973C152.742 24.6973 153.715 24.4629 154.512 23.9941C155.309 23.5254 156.006 22.9043 156.604 22.1309L158.59 23.6777C156.996 26.127 154.605 27.3516 151.418 27.3516ZM151.014 10.3008C149.701 10.3008 148.6 10.7812 147.709 11.7422C146.818 12.6914 146.268 14.0273 146.057 15.75H155.584V15.5039C155.49 13.8516 155.045 12.5742 154.248 11.6719C153.451 10.7578 152.373 10.3008 151.014 10.3008ZM170.244 24.6973C171.404 24.6973 172.418 24.3457 173.285 23.6426C174.152 22.9395 174.633 22.0605 174.727 21.0059H177.803C177.744 22.0957 177.369 23.1328 176.678 24.1172C175.986 25.1016 175.061 25.8867 173.9 26.4727C172.752 27.0586 171.533 27.3516 170.244 27.3516C167.654 27.3516 165.592 26.4902 164.057 24.7676C162.533 23.0332 161.771 20.666 161.771 17.666V17.1211C161.771 15.2695 162.111 13.623 162.791 12.1816C163.471 10.7402 164.443 9.62109 165.709 8.82422C166.986 8.02734 168.492 7.62891 170.227 7.62891C172.359 7.62891 174.129 8.26758 175.535 9.54492C176.953 10.8223 177.709 12.4805 177.803 14.5195H174.727C174.633 13.2891 174.164 12.2812 173.32 11.4961C172.488 10.6992 171.457 10.3008 170.227 10.3008C168.574 10.3008 167.291 10.8984 166.377 12.0938C165.475 13.2773 165.023 14.9941 165.023 17.2441V17.8594C165.023 20.0508 165.475 21.7383 166.377 22.9219C167.279 24.1055 168.568 24.6973 170.244 24.6973ZM184.711 10.2832C186.152 8.51367 188.027 7.62891 190.336 7.62891C194.355 7.62891 196.383 9.89648 196.418 14.4316V27H193.166V14.4141C193.154 13.043 192.838 12.0293 192.217 11.373C191.607 10.7168 190.652 10.3887 189.352 10.3887C188.297 10.3887 187.371 10.6699 186.574 11.2324C185.777 11.7949 185.156 12.5332 184.711 13.4473V27H181.459V0H184.711V10.2832Z" fill="#F2B138"/>
</svg>
